<svg width="25" height="22" viewBox="0 0 25 22" fill="none" xmlns="http://www.w3.org/2000/svg">
<path d="M1.41534 11.2715C0.790344 11.2715 0.409485 10.8418 0.409485 10.334C0.409485 10.0605 0.536438 9.77734 0.790344 9.5625L10.9661 1.01758C11.3958 0.666016 11.8646 0.490234 12.3333 0.490234C12.8021 0.490234 13.2708 0.666016 13.7005 1.01758L18.5247 5.08008V3.3418C18.5247 2.91211 18.8177 2.62891 19.2571 2.62891H20.5755C21.0052 2.62891 21.2884 2.91211 21.2884 3.3418V7.39453L23.8763 9.5625C24.1302 9.77734 24.2571 10.0605 24.2571 10.334C24.2571 10.8418 23.8763 11.2715 23.261 11.2715C22.9583 11.2715 22.6849 11.1152 22.4505 10.9102L12.7532 2.77539C12.6165 2.6582 12.47 2.60938 12.3333 2.60938C12.1966 2.60938 12.0501 2.6582 11.9232 2.77539L2.21613 10.9102C1.98175 11.1152 1.71808 11.2715 1.41534 11.2715ZM3.57355 19.1621V11.6914L11.7278 4.85547C12.0989 4.54297 12.5579 4.5332 12.929 4.85547L21.0931 11.6914V19.1621C21.0931 20.5684 20.2142 21.4082 18.7689 21.4082H5.888C4.45245 21.4082 3.57355 20.5684 3.57355 19.1621ZM9.68683 19.5332H14.9798V13.8984C14.9798 13.4395 14.6868 13.1465 14.2278 13.1465H10.4485C9.98956 13.1465 9.68683 13.4395 9.68683 13.8984V19.5332Z" fill="#9859FF"/>
</svg>
