<svg width="23" height="20" viewBox="0 0 23 20" fill="none" xmlns="http://www.w3.org/2000/svg">
<path d="M14.9953 4.34956C16.0569 4.34956 16.9311 3.4823 16.9311 2.42035C16.9311 1.36726 16.0569 0.5 14.9953 0.5C13.9249 0.5 13.0507 1.36726 13.0507 2.42035C13.0507 3.4823 13.9249 4.34956 14.9953 4.34956ZM18.9382 16.9337C18.9204 17.2168 19.1523 17.4469 19.3932 17.4735C19.6697 17.4911 19.9194 17.2876 19.9373 17.0133L20.7402 6.62389L19.75 6.5531L18.9382 16.9337ZM14.6296 12.5L12.2568 10.6239L14.0766 7.45575L17.0203 9.67703C17.4396 9.99556 18.0015 9.95134 18.3584 9.55309L20.5261 7.14601C21.2486 6.34956 20.0354 4.98672 19.188 5.97787L17.5912 7.80974L14.9953 5.71239C14.1122 5.00442 13.1577 4.34956 11.6769 4.42035L7.8322 4.60619C7.35049 4.62389 6.95799 4.92478 6.9223 5.49115L6.70821 8.88053C6.64577 9.96022 8.41203 10.3318 8.49232 8.86283L8.63504 6.28761L10.883 6.19911L9.17917 9.26991C8.63504 10.2434 8.89374 11.3053 9.8839 11.8805L13.2291 13.7921V18.261C13.2291 18.7566 13.6216 19.146 14.1212 19.146C14.6207 19.146 15.0132 18.7566 15.0132 18.261V13.2079C15.0132 12.9425 14.9418 12.7478 14.6296 12.5ZM0.437105 15.7389C0.249774 15.9248 0.249774 16.2433 0.428184 16.4292C0.624435 16.615 0.945576 16.615 1.14182 16.4204L8.21578 9.59738L7.51998 8.89823L0.437105 15.7389ZM8.84913 12.1726L8.40311 13.8805L4.64758 17.3584C3.71093 18.2168 4.9598 19.5177 5.91429 18.6239L9.77684 15.0487C9.99991 14.8539 10.0623 14.7213 10.1604 14.4912L10.6689 13.3141L9.45576 12.615C9.22383 12.4823 9.01863 12.3318 8.84913 12.1726ZM20.6153 19.5C21.5252 19.5 22.0694 19.2699 22.7027 18.9778C22.9703 18.8629 23.0506 18.5885 22.9703 18.3584C22.8811 18.1017 22.6045 17.9336 22.2745 18.1017C21.7749 18.3584 21.3735 18.5177 20.6153 18.5177H5.57531C5.3077 18.5177 5.07576 18.7212 5.07576 18.9867C5.07576 19.261 5.29877 19.5 5.57531 19.5H20.6153ZM15.7001 19.5V18.5177H0.499548C0.223013 18.5177 0 18.7212 0 18.9867C0 19.261 0.214092 19.5 0.499548 19.5H15.7001Z" fill="#F8FF15"/>
</svg>
