<svg width="14" height="16" viewBox="0 0 14 16" fill="none" xmlns="http://www.w3.org/2000/svg">
<path d="M4.2317 2.74681C4.2317 2.24165 4.35457 1.78264 4.60032 1.36976C4.85097 0.952034 5.18518 0.619308 5.60295 0.371585C6.02071 0.123862 6.48517 0 6.99631 0C7.51237 0 7.97929 0.123862 8.39705 0.371585C8.81481 0.619308 9.14657 0.952034 9.39231 1.36976C9.64297 1.78264 9.7683 2.24165 9.7683 2.74681C9.7683 3.17426 9.67737 3.57013 9.49552 3.93443C9.31367 4.29873 9.06547 4.60959 8.75092 4.86703C8.43637 5.12447 8.08004 5.30176 7.68194 5.39891V10.0109C7.68194 10.5501 7.65982 11.0261 7.61559 11.439C7.57135 11.8519 7.51483 12.1992 7.44602 12.4809C7.38213 12.7626 7.30841 12.9763 7.22485 13.122C7.14622 13.2629 7.07004 13.3333 6.99631 13.3333C6.92259 13.3333 6.84641 13.2629 6.76777 13.122C6.68913 12.9763 6.61541 12.7626 6.5466 12.4809C6.4778 12.1992 6.42127 11.8519 6.37704 11.439C6.33281 11.0261 6.31069 10.5501 6.31069 10.0109V5.39891C5.91259 5.30176 5.55626 5.12447 5.24171 4.86703C4.92715 4.60959 4.67895 4.29873 4.4971 3.93443C4.32017 3.57013 4.2317 3.17426 4.2317 2.74681ZM6.20748 2.89253C6.46797 2.89253 6.69159 2.80024 6.87836 2.61566C7.06512 2.42623 7.1585 2.20522 7.1585 1.95264C7.1585 1.70006 7.06512 1.48148 6.87836 1.2969C6.69159 1.11233 6.46797 1.02004 6.20748 1.02004C5.95682 1.02004 5.73565 1.11233 5.54397 1.2969C5.35721 1.48148 5.26382 1.70006 5.26382 1.95264C5.26382 2.20522 5.35721 2.42623 5.54397 2.61566C5.73565 2.80024 5.95682 2.89253 6.20748 2.89253ZM7.00369 16C5.89293 16 4.90258 15.9126 4.03265 15.7377C3.16763 15.5677 2.43532 15.3345 1.8357 15.0383C1.23609 14.7468 0.779006 14.4141 0.464455 14.0401C0.154818 13.6709 0 13.2848 0 12.8816C0 12.4979 0.110585 12.1457 0.331754 11.8251C0.552923 11.4997 0.847815 11.2107 1.21643 10.9581C1.58504 10.7055 1.99298 10.4918 2.44023 10.3169C2.8924 10.1372 3.34948 10.0012 3.81148 9.90893C4.27839 9.81178 4.71336 9.76321 5.11638 9.76321V10.827C4.76251 10.8318 4.37669 10.8828 3.95893 10.98C3.54116 11.0723 3.14552 11.201 2.77199 11.3661C2.39846 11.5313 2.09128 11.728 1.85045 11.9563C1.61453 12.1846 1.49658 12.4347 1.49658 12.7067C1.49658 13.0225 1.63174 13.3115 1.90205 13.5738C2.17729 13.8361 2.56065 14.0619 3.05213 14.2514C3.54853 14.4408 4.13095 14.5865 4.79937 14.6885C5.4727 14.7954 6.20748 14.8488 7.00369 14.8488C7.79498 14.8488 8.52484 14.7954 9.19326 14.6885C9.8666 14.5865 10.449 14.4384 10.9405 14.2441C11.4369 14.0546 11.8227 13.8288 12.0979 13.5665C12.3732 13.309 12.5108 13.0225 12.5108 12.7067C12.5108 12.4347 12.3904 12.1846 12.1496 11.9563C11.9087 11.728 11.6015 11.5313 11.228 11.3661C10.8545 11.201 10.4588 11.0723 10.0411 10.98C9.62823 10.8828 9.24241 10.8318 8.88362 10.827V9.76321C9.29156 9.76321 9.72652 9.81178 10.1885 9.90893C10.6554 10.0012 11.1125 10.1372 11.5598 10.3169C12.0119 10.4918 12.4223 10.7055 12.7909 10.9581C13.1596 11.2107 13.452 11.4997 13.6682 11.8251C13.8894 12.1457 14 12.4979 14 12.8816C14 13.2848 13.8452 13.6709 13.5355 14.0401C13.2259 14.4141 12.7713 14.7468 12.1717 15.0383C11.5721 15.3345 10.8373 15.5677 9.96735 15.7377C9.10233 15.9126 8.11445 16 7.00369 16Z" fill="#F8FF15"/>
</svg>
