<svg width="20" height="20" viewBox="0 0 20 20" fill="none" xmlns="http://www.w3.org/2000/svg">
<path d="M3.28122 19.0801C1.17184 19.0801 0.0780945 17.9961 0.0780945 15.9062V4.02148C0.0780945 1.93164 1.17184 0.847656 3.28122 0.847656H16.7187C18.8281 0.847656 19.9218 1.93164 19.9218 4.02148V15.9062C19.9218 17.9863 18.8281 19.0801 16.7187 19.0801H3.28122ZM3.25192 17.166H16.7285C17.5488 17.166 18.0078 16.7363 18.0078 15.8867V6.86328C18.0078 6.00391 17.5488 5.58398 16.7285 5.58398H3.25192C2.44138 5.58398 1.99216 6.00391 1.99216 6.86328V15.8867C1.99216 16.7363 2.44138 17.166 3.25192 17.166ZM8.1152 8.97266C7.77341 8.97266 7.65622 8.86523 7.65622 8.51367V7.94727C7.65622 7.5957 7.77341 7.48828 8.1152 7.48828H8.69138C9.04294 7.48828 9.16013 7.5957 9.16013 7.94727V8.51367C9.16013 8.86523 9.04294 8.97266 8.69138 8.97266H8.1152ZM11.3183 8.97266C10.9668 8.97266 10.8496 8.86523 10.8496 8.51367V7.94727C10.8496 7.5957 10.9668 7.48828 11.3183 7.48828H11.8847C12.2363 7.48828 12.3535 7.5957 12.3535 7.94727V8.51367C12.3535 8.86523 12.2363 8.97266 11.8847 8.97266H11.3183ZM14.5117 8.97266C14.1601 8.97266 14.0429 8.86523 14.0429 8.51367V7.94727C14.0429 7.5957 14.1601 7.48828 14.5117 7.48828H15.0781C15.4297 7.48828 15.5468 7.5957 15.5468 7.94727V8.51367C15.5468 8.86523 15.4297 8.97266 15.0781 8.97266H14.5117ZM4.92184 12.1172C4.58005 12.1172 4.46286 12.0098 4.46286 11.6582V11.0918C4.46286 10.7402 4.58005 10.6328 4.92184 10.6328H5.49802C5.84958 10.6328 5.96677 10.7402 5.96677 11.0918V11.6582C5.96677 12.0098 5.84958 12.1172 5.49802 12.1172H4.92184ZM8.1152 12.1172C7.77341 12.1172 7.65622 12.0098 7.65622 11.6582V11.0918C7.65622 10.7402 7.77341 10.6328 8.1152 10.6328H8.69138C9.04294 10.6328 9.16013 10.7402 9.16013 11.0918V11.6582C9.16013 12.0098 9.04294 12.1172 8.69138 12.1172H8.1152ZM11.3183 12.1172C10.9668 12.1172 10.8496 12.0098 10.8496 11.6582V11.0918C10.8496 10.7402 10.9668 10.6328 11.3183 10.6328H11.8847C12.2363 10.6328 12.3535 10.7402 12.3535 11.0918V11.6582C12.3535 12.0098 12.2363 12.1172 11.8847 12.1172H11.3183ZM14.5117 12.1172C14.1601 12.1172 14.0429 12.0098 14.0429 11.6582V11.0918C14.0429 10.7402 14.1601 10.6328 14.5117 10.6328H15.0781C15.4297 10.6328 15.5468 10.7402 15.5468 11.0918V11.6582C15.5468 12.0098 15.4297 12.1172 15.0781 12.1172H14.5117ZM4.92184 15.2617C4.58005 15.2617 4.46286 15.1543 4.46286 14.8027V14.2363C4.46286 13.8848 4.58005 13.7773 4.92184 13.7773H5.49802C5.84958 13.7773 5.96677 13.8848 5.96677 14.2363V14.8027C5.96677 15.1543 5.84958 15.2617 5.49802 15.2617H4.92184ZM8.1152 15.2617C7.77341 15.2617 7.65622 15.1543 7.65622 14.8027V14.2363C7.65622 13.8848 7.77341 13.7773 8.1152 13.7773H8.69138C9.04294 13.7773 9.16013 13.8848 9.16013 14.2363V14.8027C9.16013 15.1543 9.04294 15.2617 8.69138 15.2617H8.1152ZM11.3183 15.2617C10.9668 15.2617 10.8496 15.1543 10.8496 14.8027V14.2363C10.8496 13.8848 10.9668 13.7773 11.3183 13.7773H11.8847C12.2363 13.7773 12.3535 13.8848 12.3535 14.2363V14.8027C12.3535 15.1543 12.2363 15.2617 11.8847 15.2617H11.3183Z" fill="#9859FF"/>
</svg>
