<svg width="21" height="22" viewBox="0 0 21 22" fill="none" xmlns="http://www.w3.org/2000/svg">
<path d="M10.6667 21.0371C5.10025 21.0371 0.578766 16.5156 0.578766 10.9492C0.578766 5.38281 5.10025 0.861328 10.6667 0.861328C16.2331 0.861328 20.7545 5.38281 20.7545 10.9492C20.7545 16.5156 16.2331 21.0371 10.6667 21.0371ZM10.6667 19.0449C15.1491 19.0449 18.7721 15.4316 18.7721 10.9492C18.7721 6.4668 15.1491 2.84375 10.6667 2.84375C6.18423 2.84375 2.56119 6.4668 2.56119 10.9492C2.56119 15.4316 6.18423 19.0449 10.6667 19.0449ZM10.6569 6.35938C10.1588 6.35938 9.73892 5.94922 9.73892 5.44141C9.73892 4.94336 10.1588 4.52344 10.6569 4.52344C11.1647 4.52344 11.5749 4.94336 11.5749 5.44141C11.5749 5.94922 11.1647 6.35938 10.6569 6.35938ZM7.58072 7.29688C7.07291 7.29688 6.66275 6.88672 6.66275 6.37891C6.66275 5.88086 7.07291 5.46094 7.58072 5.46094C8.07877 5.46094 8.49869 5.88086 8.49869 6.37891C8.49869 6.88672 8.07877 7.29688 7.58072 7.29688ZM13.7428 7.29688C13.235 7.29688 12.8249 6.88672 12.8249 6.37891C12.8249 5.88086 13.235 5.46094 13.7428 5.46094C14.2409 5.46094 14.6608 5.88086 14.6608 6.37891C14.6608 6.88672 14.2409 7.29688 13.7428 7.29688ZM5.49088 9.79688C4.98306 9.79688 4.57291 9.37695 4.57291 8.87891C4.57291 8.37109 4.98306 7.95117 5.49088 7.95117C5.98892 7.95117 6.40884 8.37109 6.40884 8.87891C6.40884 9.37695 5.98892 9.79688 5.49088 9.79688ZM15.8327 9.79688C15.3249 9.79688 14.9049 9.37695 14.9049 8.87891C14.9049 8.37109 15.3249 7.95117 15.8327 7.95117C16.3307 7.95117 16.7506 8.37109 16.7506 8.87891C16.7506 9.37695 16.3307 9.79688 15.8327 9.79688ZM10.6667 17.0234C9.76822 17.0234 9.09439 16.3594 9.09439 15.4512C9.09439 15.2852 9.15298 14.9824 9.19205 14.748L10.1686 9.49414C10.2272 9.19141 10.4323 9.03516 10.6667 9.03516C10.901 9.03516 11.1061 9.19141 11.1647 9.49414L12.1413 14.748C12.1901 14.9824 12.2389 15.2852 12.2389 15.4512C12.2389 16.3594 11.5749 17.0234 10.6667 17.0234Z" fill="#9859FF"/>
</svg>
